<mxfile host="app.diagrams.net" agent="Mozilla/5.0 (X11; Linux x86_64) AppleWebKit/537.36 (KHTML, like Gecko) Chrome/126.0.0.0 Safari/537.36" version="24.7.16">
  <diagram name="PÃ¡gina-1" id="wv_io7iDWjd17b4bqiQM">
    <mxGraphModel dx="1588" dy="1448" grid="1" gridSize="10" guides="1" tooltips="1" connect="1" arrows="1" fold="1" page="1" pageScale="1" pageWidth="827" pageHeight="1169" math="0" shadow="0">
      <root>
        <mxCell id="0" />
        <mxCell id="1" parent="0" />
        <mxCell id="RtZUz-rKfvPOxws67RTB-1" value="MODELO DORMITORIO" style="rounded=0;whiteSpace=wrap;html=1;" vertex="1" parent="1">
          <mxGeometry x="104" y="340" width="120" height="60" as="geometry" />
        </mxCell>
        <mxCell id="RtZUz-rKfvPOxws67RTB-2" value="MONTADOR" style="rounded=0;whiteSpace=wrap;html=1;" vertex="1" parent="1">
          <mxGeometry x="504" y="340" width="120" height="60" as="geometry" />
        </mxCell>
        <mxCell id="RtZUz-rKfvPOxws67RTB-3" value="CLIENTE" style="rounded=0;whiteSpace=wrap;html=1;" vertex="1" parent="1">
          <mxGeometry x="84" y="610" width="120" height="60" as="geometry" />
        </mxCell>
        <mxCell id="RtZUz-rKfvPOxws67RTB-4" value="" style="endArrow=none;html=1;rounded=0;exitX=1;exitY=0.5;exitDx=0;exitDy=0;" edge="1" parent="1" source="RtZUz-rKfvPOxws67RTB-1">
          <mxGeometry width="50" height="50" relative="1" as="geometry">
            <mxPoint x="274" y="400" as="sourcePoint" />
            <mxPoint x="324" y="370" as="targetPoint" />
          </mxGeometry>
        </mxCell>
        <mxCell id="RtZUz-rKfvPOxws67RTB-5" value="Montaje" style="rhombus;whiteSpace=wrap;html=1;" vertex="1" parent="1">
          <mxGeometry x="314" y="330" width="80" height="80" as="geometry" />
        </mxCell>
        <mxCell id="RtZUz-rKfvPOxws67RTB-6" value="" style="endArrow=none;html=1;rounded=0;entryX=0;entryY=0.5;entryDx=0;entryDy=0;exitX=1;exitY=0.5;exitDx=0;exitDy=0;" edge="1" parent="1" source="RtZUz-rKfvPOxws67RTB-5" target="RtZUz-rKfvPOxws67RTB-2">
          <mxGeometry width="50" height="50" relative="1" as="geometry">
            <mxPoint x="274" y="400" as="sourcePoint" />
            <mxPoint x="324" y="350" as="targetPoint" />
          </mxGeometry>
        </mxCell>
        <mxCell id="RtZUz-rKfvPOxws67RTB-7" value="(2,n)" style="text;html=1;align=center;verticalAlign=middle;resizable=0;points=[];autosize=1;strokeColor=none;fillColor=none;" vertex="1" parent="1">
          <mxGeometry x="459" y="338" width="50" height="30" as="geometry" />
        </mxCell>
        <mxCell id="RtZUz-rKfvPOxws67RTB-8" value="(0,n)" style="text;html=1;align=center;verticalAlign=middle;resizable=0;points=[];autosize=1;strokeColor=none;fillColor=none;" vertex="1" parent="1">
          <mxGeometry x="214" y="338" width="50" height="30" as="geometry" />
        </mxCell>
        <mxCell id="RtZUz-rKfvPOxws67RTB-9" value="" style="endArrow=none;html=1;rounded=0;entryX=0.75;entryY=1;entryDx=0;entryDy=0;" edge="1" parent="1" target="RtZUz-rKfvPOxws67RTB-1">
          <mxGeometry width="50" height="50" relative="1" as="geometry">
            <mxPoint x="194" y="420" as="sourcePoint" />
            <mxPoint x="324" y="350" as="targetPoint" />
          </mxGeometry>
        </mxCell>
        <mxCell id="RtZUz-rKfvPOxws67RTB-11" value="" style="ellipse;whiteSpace=wrap;html=1;aspect=fixed;fillColor=#000000;" vertex="1" parent="1">
          <mxGeometry x="184" y="419" width="21" height="21" as="geometry" />
        </mxCell>
        <mxCell id="RtZUz-rKfvPOxws67RTB-12" value="Cod_Mod" style="text;html=1;align=center;verticalAlign=middle;resizable=0;points=[];autosize=1;strokeColor=none;fillColor=none;" vertex="1" parent="1">
          <mxGeometry x="154.5" y="426" width="80" height="30" as="geometry" />
        </mxCell>
        <mxCell id="RtZUz-rKfvPOxws67RTB-13" value="" style="endArrow=none;html=1;rounded=0;entryX=0.382;entryY=0.08;entryDx=0;entryDy=0;entryPerimeter=0;" edge="1" parent="1" target="RtZUz-rKfvPOxws67RTB-5">
          <mxGeometry width="50" height="50" relative="1" as="geometry">
            <mxPoint x="324" y="320" as="sourcePoint" />
            <mxPoint x="354" y="310" as="targetPoint" />
          </mxGeometry>
        </mxCell>
        <mxCell id="RtZUz-rKfvPOxws67RTB-14" value="" style="ellipse;whiteSpace=wrap;html=1;aspect=fixed;" vertex="1" parent="1">
          <mxGeometry x="308" y="300" width="20" height="20" as="geometry" />
        </mxCell>
        <mxCell id="RtZUz-rKfvPOxws67RTB-15" value="Fecha_montaje" style="text;html=1;align=center;verticalAlign=middle;resizable=0;points=[];autosize=1;strokeColor=none;fillColor=none;" vertex="1" parent="1">
          <mxGeometry x="263" y="270" width="110" height="30" as="geometry" />
        </mxCell>
        <mxCell id="RtZUz-rKfvPOxws67RTB-16" value="" style="endArrow=none;html=1;rounded=0;entryX=0.508;entryY=1.039;entryDx=0;entryDy=0;entryPerimeter=0;" edge="1" parent="1" target="RtZUz-rKfvPOxws67RTB-2">
          <mxGeometry width="50" height="50" relative="1" as="geometry">
            <mxPoint x="565" y="430" as="sourcePoint" />
            <mxPoint x="564" y="380" as="targetPoint" />
          </mxGeometry>
        </mxCell>
        <mxCell id="RtZUz-rKfvPOxws67RTB-17" value="" style="ellipse;whiteSpace=wrap;html=1;aspect=fixed;fillColor=#000000;" vertex="1" parent="1">
          <mxGeometry x="549.5" y="426" width="29" height="29" as="geometry" />
        </mxCell>
        <mxCell id="RtZUz-rKfvPOxws67RTB-18" value="NIF" style="text;html=1;align=center;verticalAlign=middle;resizable=0;points=[];autosize=1;strokeColor=none;fillColor=none;" vertex="1" parent="1">
          <mxGeometry x="544" y="450" width="40" height="30" as="geometry" />
        </mxCell>
        <mxCell id="RtZUz-rKfvPOxws67RTB-19" value="" style="endArrow=none;html=1;rounded=0;entryX=0.508;entryY=1.039;entryDx=0;entryDy=0;entryPerimeter=0;fontStyle=1" edge="1" parent="1">
          <mxGeometry width="50" height="50" relative="1" as="geometry">
            <mxPoint x="608.83" y="428" as="sourcePoint" />
            <mxPoint x="608.83" y="400" as="targetPoint" />
          </mxGeometry>
        </mxCell>
        <mxCell id="RtZUz-rKfvPOxws67RTB-20" value="" style="ellipse;whiteSpace=wrap;html=1;aspect=fixed;" vertex="1" parent="1">
          <mxGeometry x="597" y="426" width="24" height="24" as="geometry" />
        </mxCell>
        <mxCell id="RtZUz-rKfvPOxws67RTB-21" value="Nombre" style="text;html=1;align=center;verticalAlign=middle;resizable=0;points=[];autosize=1;strokeColor=none;fillColor=none;" vertex="1" parent="1">
          <mxGeometry x="574" y="443" width="70" height="30" as="geometry" />
        </mxCell>
        <mxCell id="RtZUz-rKfvPOxws67RTB-22" value="" style="endArrow=none;html=1;rounded=0;exitX=1;exitY=0.75;exitDx=0;exitDy=0;entryX=0;entryY=0.5;entryDx=0;entryDy=0;" edge="1" parent="1" source="RtZUz-rKfvPOxws67RTB-2" target="RtZUz-rKfvPOxws67RTB-23">
          <mxGeometry width="50" height="50" relative="1" as="geometry">
            <mxPoint x="634" y="430" as="sourcePoint" />
            <mxPoint x="644" y="394" as="targetPoint" />
          </mxGeometry>
        </mxCell>
        <mxCell id="RtZUz-rKfvPOxws67RTB-23" value="" style="ellipse;whiteSpace=wrap;html=1;aspect=fixed;" vertex="1" parent="1">
          <mxGeometry x="644" y="380" width="20" height="20" as="geometry" />
        </mxCell>
        <mxCell id="RtZUz-rKfvPOxws67RTB-24" value="Direccion" style="text;html=1;align=center;verticalAlign=middle;resizable=0;points=[];autosize=1;strokeColor=none;fillColor=none;" vertex="1" parent="1">
          <mxGeometry x="664" y="375" width="70" height="30" as="geometry" />
        </mxCell>
        <mxCell id="RtZUz-rKfvPOxws67RTB-25" value="" style="endArrow=none;html=1;rounded=0;exitX=1.013;exitY=0.409;exitDx=0;exitDy=0;exitPerimeter=0;" edge="1" parent="1" source="RtZUz-rKfvPOxws67RTB-2">
          <mxGeometry width="50" height="50" relative="1" as="geometry">
            <mxPoint x="634" y="430" as="sourcePoint" />
            <mxPoint x="674" y="365" as="targetPoint" />
          </mxGeometry>
        </mxCell>
        <mxCell id="RtZUz-rKfvPOxws67RTB-26" value="" style="ellipse;whiteSpace=wrap;html=1;aspect=fixed;" vertex="1" parent="1">
          <mxGeometry x="664" y="355" width="20" height="20" as="geometry" />
        </mxCell>
        <mxCell id="RtZUz-rKfvPOxws67RTB-27" value="Telefono" style="text;html=1;align=center;verticalAlign=middle;resizable=0;points=[];autosize=1;strokeColor=none;fillColor=none;" vertex="1" parent="1">
          <mxGeometry x="674" y="350" width="70" height="30" as="geometry" />
        </mxCell>
        <mxCell id="RtZUz-rKfvPOxws67RTB-31" value="" style="endArrow=none;html=1;rounded=0;entryX=0.348;entryY=0.981;entryDx=0;entryDy=0;entryPerimeter=0;" edge="1" parent="1" target="RtZUz-rKfvPOxws67RTB-1">
          <mxGeometry width="50" height="50" relative="1" as="geometry">
            <mxPoint x="144" y="480" as="sourcePoint" />
            <mxPoint x="454" y="440" as="targetPoint" />
          </mxGeometry>
        </mxCell>
        <mxCell id="RtZUz-rKfvPOxws67RTB-32" value="Compra" style="rhombus;whiteSpace=wrap;html=1;" vertex="1" parent="1">
          <mxGeometry x="119" y="480" width="50" height="50" as="geometry" />
        </mxCell>
        <mxCell id="RtZUz-rKfvPOxws67RTB-33" value="" style="endArrow=none;html=1;rounded=0;exitX=0.5;exitY=0;exitDx=0;exitDy=0;" edge="1" parent="1" source="RtZUz-rKfvPOxws67RTB-3" target="RtZUz-rKfvPOxws67RTB-32">
          <mxGeometry width="50" height="50" relative="1" as="geometry">
            <mxPoint x="254" y="530" as="sourcePoint" />
            <mxPoint x="304" y="480" as="targetPoint" />
          </mxGeometry>
        </mxCell>
        <mxCell id="RtZUz-rKfvPOxws67RTB-34" value="(1,n)" style="text;html=1;align=center;verticalAlign=middle;resizable=0;points=[];autosize=1;strokeColor=none;fillColor=none;" vertex="1" parent="1">
          <mxGeometry x="134" y="580" width="50" height="30" as="geometry" />
        </mxCell>
        <mxCell id="RtZUz-rKfvPOxws67RTB-35" value="(1,n)" style="text;html=1;align=center;verticalAlign=middle;resizable=0;points=[];autosize=1;strokeColor=none;fillColor=none;" vertex="1" parent="1">
          <mxGeometry x="104" y="395" width="50" height="30" as="geometry" />
        </mxCell>
        <mxCell id="RtZUz-rKfvPOxws67RTB-36" value="" style="endArrow=none;html=1;rounded=0;entryX=0.508;entryY=1.039;entryDx=0;entryDy=0;entryPerimeter=0;" edge="1" parent="1">
          <mxGeometry width="50" height="50" relative="1" as="geometry">
            <mxPoint x="110" y="698" as="sourcePoint" />
            <mxPoint x="110" y="670" as="targetPoint" />
          </mxGeometry>
        </mxCell>
        <mxCell id="RtZUz-rKfvPOxws67RTB-37" value="" style="ellipse;whiteSpace=wrap;html=1;aspect=fixed;fillColor=#000000;" vertex="1" parent="1">
          <mxGeometry x="97" y="698" width="24" height="24" as="geometry" />
        </mxCell>
        <mxCell id="RtZUz-rKfvPOxws67RTB-38" value="NIF" style="text;html=1;align=center;verticalAlign=middle;resizable=0;points=[];autosize=1;strokeColor=none;fillColor=none;" vertex="1" parent="1">
          <mxGeometry x="89" y="718" width="40" height="30" as="geometry" />
        </mxCell>
        <mxCell id="RtZUz-rKfvPOxws67RTB-39" value="" style="ellipse;whiteSpace=wrap;html=1;aspect=fixed;" vertex="1" parent="1">
          <mxGeometry x="150" y="704" width="19" height="19" as="geometry" />
        </mxCell>
        <mxCell id="RtZUz-rKfvPOxws67RTB-40" value="Nombre" style="text;html=1;align=center;verticalAlign=middle;resizable=0;points=[];autosize=1;strokeColor=none;fillColor=none;" vertex="1" parent="1">
          <mxGeometry x="119" y="718" width="70" height="30" as="geometry" />
        </mxCell>
        <mxCell id="RtZUz-rKfvPOxws67RTB-41" value="" style="endArrow=none;html=1;rounded=0;entryX=0.58;entryY=1.04;entryDx=0;entryDy=0;entryPerimeter=0;" edge="1" parent="1" source="RtZUz-rKfvPOxws67RTB-39" target="RtZUz-rKfvPOxws67RTB-3">
          <mxGeometry width="50" height="50" relative="1" as="geometry">
            <mxPoint x="214" y="680" as="sourcePoint" />
            <mxPoint x="264" y="630" as="targetPoint" />
          </mxGeometry>
        </mxCell>
        <mxCell id="RtZUz-rKfvPOxws67RTB-42" value="" style="endArrow=none;html=1;rounded=0;entryX=0.95;entryY=1.033;entryDx=0;entryDy=0;entryPerimeter=0;" edge="1" parent="1" target="RtZUz-rKfvPOxws67RTB-3">
          <mxGeometry width="50" height="50" relative="1" as="geometry">
            <mxPoint x="214" y="700" as="sourcePoint" />
            <mxPoint x="264" y="630" as="targetPoint" />
          </mxGeometry>
        </mxCell>
        <mxCell id="RtZUz-rKfvPOxws67RTB-43" value="" style="ellipse;whiteSpace=wrap;html=1;aspect=fixed;" vertex="1" parent="1">
          <mxGeometry x="205" y="698" width="24" height="24" as="geometry" />
        </mxCell>
        <mxCell id="RtZUz-rKfvPOxws67RTB-44" value="Direccion" style="text;html=1;align=center;verticalAlign=middle;resizable=0;points=[];autosize=1;strokeColor=none;fillColor=none;" vertex="1" parent="1">
          <mxGeometry x="184" y="718" width="70" height="30" as="geometry" />
        </mxCell>
        <mxCell id="RtZUz-rKfvPOxws67RTB-45" value="" style="endArrow=none;html=1;rounded=0;exitX=1.007;exitY=0.827;exitDx=0;exitDy=0;exitPerimeter=0;" edge="1" parent="1" source="RtZUz-rKfvPOxws67RTB-3">
          <mxGeometry width="50" height="50" relative="1" as="geometry">
            <mxPoint x="214" y="680" as="sourcePoint" />
            <mxPoint x="234" y="670" as="targetPoint" />
          </mxGeometry>
        </mxCell>
        <mxCell id="RtZUz-rKfvPOxws67RTB-46" value="" style="ellipse;whiteSpace=wrap;html=1;aspect=fixed;" vertex="1" parent="1">
          <mxGeometry x="230" y="666.5" width="24" height="24" as="geometry" />
        </mxCell>
        <mxCell id="RtZUz-rKfvPOxws67RTB-47" value="Telefono" style="text;html=1;align=center;verticalAlign=middle;resizable=0;points=[];autosize=1;strokeColor=none;fillColor=none;" vertex="1" parent="1">
          <mxGeometry x="244" y="666.5" width="70" height="30" as="geometry" />
        </mxCell>
        <mxCell id="RtZUz-rKfvPOxws67RTB-48" value="" style="endArrow=none;html=1;rounded=0;" edge="1" parent="1" source="RtZUz-rKfvPOxws67RTB-32">
          <mxGeometry width="50" height="50" relative="1" as="geometry">
            <mxPoint x="214" y="580" as="sourcePoint" />
            <mxPoint x="194" y="530" as="targetPoint" />
          </mxGeometry>
        </mxCell>
        <mxCell id="RtZUz-rKfvPOxws67RTB-50" value="" style="ellipse;whiteSpace=wrap;html=1;aspect=fixed;" vertex="1" parent="1">
          <mxGeometry x="189" y="521" width="19" height="19" as="geometry" />
        </mxCell>
        <mxCell id="RtZUz-rKfvPOxws67RTB-51" value="Fecha_compra" style="text;html=1;align=center;verticalAlign=middle;resizable=0;points=[];autosize=1;strokeColor=none;fillColor=none;" vertex="1" parent="1">
          <mxGeometry x="154" y="530" width="100" height="30" as="geometry" />
        </mxCell>
        <mxCell id="RtZUz-rKfvPOxws67RTB-52" value="M:N" style="text;html=1;align=center;verticalAlign=middle;resizable=0;points=[];autosize=1;strokeColor=none;fillColor=none;" vertex="1" parent="1">
          <mxGeometry x="329" y="405" width="50" height="30" as="geometry" />
        </mxCell>
        <mxCell id="RtZUz-rKfvPOxws67RTB-53" value="M&lt;br&gt;. .&lt;br&gt;N" style="text;html=1;align=center;verticalAlign=middle;resizable=0;points=[];autosize=1;strokeColor=none;fillColor=none;" vertex="1" parent="1">
          <mxGeometry x="85" y="473" width="30" height="60" as="geometry" />
        </mxCell>
        <mxCell id="RtZUz-rKfvPOxws67RTB-54" value="" style="endArrow=none;html=1;rounded=0;" edge="1" parent="1" source="RtZUz-rKfvPOxws67RTB-5">
          <mxGeometry width="50" height="50" relative="1" as="geometry">
            <mxPoint x="350" y="400" as="sourcePoint" />
            <mxPoint x="420" y="290" as="targetPoint" />
          </mxGeometry>
        </mxCell>
        <mxCell id="RtZUz-rKfvPOxws67RTB-55" value="NÂºDormitorios_montados&lt;div&gt;&amp;nbsp;(atributo calculado)&lt;/div&gt;" style="text;html=1;align=center;verticalAlign=middle;resizable=0;points=[];autosize=1;strokeColor=none;fillColor=none;" vertex="1" parent="1">
          <mxGeometry x="394" y="265" width="160" height="40" as="geometry" />
        </mxCell>
        <mxCell id="RtZUz-rKfvPOxws67RTB-57" value="" style="ellipse;whiteSpace=wrap;html=1;align=center;dashed=1;" vertex="1" parent="1">
          <mxGeometry x="404" y="285" width="20" height="20" as="geometry" />
        </mxCell>
      </root>
    </mxGraphModel>
  </diagram>
</mxfile>
